<svg width="73" height="66" viewBox="0 0 73 66" fill="none" xmlns="http://www.w3.org/2000/svg">
<path d="M64.2742 27.8431C64.2742 27.8431 66.5212 26.6172 67.0858 26.3066C67.6504 25.9959 69.7093 24.7424 70.4564 25.8406C70.8955 26.4841 70.0572 28.3034 68.7169 30.2005C67.4965 31.9367 64.6563 35.5033 64.4966 36.2077C64.3369 36.9122 65.1297 39.7356 65.3692 40.8283C65.6087 41.921 66.3615 44.5502 66.0365 45.5653C65.7114 46.5804 64.0803 49.3649 59.9056 49.315C56.5864 49.2762 55.6226 48.3277 55.5142 47.7508C55.4343 47.3348 55.1948 45.9536 55.1948 45.9536C55.1948 45.9536 52.463 47.5955 51.1798 48.2167C49.8966 48.838 46.4405 50.5575 46.4405 50.5575C46.4405 50.5575 47.1078 53.5251 47.2162 54.7232C47.3245 55.9213 47.7066 57.6353 47.0565 58.7835C46.469 59.8263 44.6326 61.5681 40.3097 61.5403C36.9334 61.5181 36.0836 60.4975 35.5476 59.8763C35.0115 59.2495 34.9031 56.2819 34.9031 55.6606C34.9031 55.0394 34.7947 52.8484 34.7947 52.8484C34.7947 52.8484 30.2208 52.6265 27.4605 52.4324C24.9626 52.2549 21.6661 51.8832 21.6661 51.8832C21.6661 51.8832 21.7859 53.1756 21.9057 54.1075C22.014 54.9395 22.0368 56.6813 21.1415 57.5299C19.9381 58.6726 16.8299 58.7558 15.119 58.5949C13.408 58.4396 11.0241 57.5799 10.3283 56.0711C9.63256 54.5624 10.5451 52.5821 10.9158 51.4395C11.2465 50.4355 11.8283 48.9933 11.6115 48.5773C11.3948 48.1613 9.30748 47.6399 6.31334 44.7222C3.31349 41.8045 -0.604554 31.6759 8.18396 24.6259C17.0181 17.5481 33.1694 25.236 34.0248 25.7574C34.9031 26.2899 64.2742 27.8431 64.2742 27.8431Z" fill="#454545"/>
<path d="M37.7832 9.02251C29.8387 9.36642 23.879 13.1938 20.919 17.3761C19.1511 19.8722 18.2671 21.6694 18.2671 21.6694C18.2671 21.6694 21.0103 21.747 23.4855 23.0339C26.337 24.5149 29.6448 26.118 31.8177 33.0904C33.4545 38.3599 34.0876 43.3688 38.3421 44.4726C43.1612 45.7206 54.4021 45.0994 59.7801 40.024C65.1582 34.9486 66.2019 31.1213 64.8388 26.1235C63.4758 21.1258 57.3278 12.2286 48.7788 9.88228C45.0889 8.8672 41.3933 8.8672 37.7832 9.02251Z" fill="#443A82"/>
<path d="M63.8351 23.4666C63.5955 22.9174 63.0937 22.0798 63.0937 22.0798C63.0937 22.0798 63.0537 23.2169 62.9511 23.816C62.7914 24.7923 62.2382 26.8224 61.9188 26.5229C61.3485 25.9848 58.6509 22.6844 57.3677 20.8484C56.3925 19.4506 53.0333 15.7952 52.9535 14.6026C52.9136 14.0147 53.6778 12.0234 53.6778 12.0234C53.6778 12.0234 52.982 11.6351 52.3376 11.2801C51.8357 11.0083 51.1057 10.7087 51.1057 10.7087C51.1057 10.7087 50.6665 13.4267 50.1818 13.937C49.754 14.3863 47.1477 15.3792 45.1231 16.1225C42.6765 17.0211 40.304 18.1915 39.42 18.3468C38.6444 18.4855 34.2358 17.5647 32.5762 17.2541C30.4889 16.8658 27.3408 16.0005 26.6165 15.4957C25.7724 14.9077 24.8656 13.399 24.8656 13.399C24.8656 13.399 24.358 13.7373 23.8504 14.1256C23.3486 14.5083 22.6984 15.2683 22.6984 15.2683C22.6984 15.2683 24.0158 16.5551 24.09 17.0322C24.1926 17.6978 23.3657 18.6019 22.687 19.4617C22.2764 19.9776 21.1187 22.1519 21.1187 22.1519C21.1187 22.1519 21.6719 22.2019 22.3448 22.5014C23.0463 22.8176 23.7022 23.1448 23.7022 23.1448C23.7022 23.1448 25.396 19.3175 26.4967 18.968C27.4377 18.6685 30.0897 19.5172 32.0173 19.9055C34.7491 20.4546 37.5151 20.9427 38.0969 21.6638C38.7014 22.4071 39.2717 25.3691 39.8249 27.8708C40.4294 30.6109 41.9978 37.722 41.6328 38.2656C41.2735 38.8148 38.382 38.6151 36.7338 38.4209C35.3365 38.2545 33.0781 37.4447 33.0781 37.4447C33.0781 37.4447 33.4089 38.6151 33.5172 38.9257C33.6769 39.375 34.1788 40.623 34.1788 40.623C34.1788 40.623 37.4125 42.0098 46.9652 41.15C56.5179 40.2902 61.2401 33.9612 62.5804 31.1545C64.3712 27.3937 64.5993 25.3913 64.5993 25.3913C64.5993 25.3913 64.0746 24.0157 63.8351 23.4666ZM55.1207 35.6087C52.7026 37.0897 46.4519 38.6539 45.3227 38.0659C44.4216 37.5944 43.0757 30.3336 42.4312 27.0942C42.0206 25.0197 41.034 21.8691 41.6271 20.8873C42.0263 20.2216 44.3589 19.2287 46.0812 18.4466C47.718 17.7089 50.0563 16.7105 50.7407 16.7881C51.7102 16.8991 53.7919 20.1828 55.8792 22.9951C57.9665 25.8073 60.2535 28.7361 60.2934 29.7512C60.3447 30.7718 57.6129 34.0888 55.1207 35.6087Z" fill="#61B6E6"/>
<path d="M23.4855 31.5317C23.7706 33.1015 22.9437 34.7212 21.1643 34.8709C19.7043 34.993 18.5466 34.0001 18.2614 32.4303C17.9763 30.8605 18.9116 29.3851 20.3602 29.1355C21.7974 28.8859 23.2003 29.9564 23.4855 31.5317ZM13.0145 31.6704C13.0545 33.2457 11.6344 34.8266 9.87783 34.5048C8.43494 34.2386 7.60228 32.9905 7.76197 31.4263C7.92736 29.8621 9.23908 28.7084 10.6991 28.847C12.1591 28.9857 12.9746 30.0285 13.0145 31.6704ZM17.5485 37.4835C18.2101 37.0453 19.3165 36.0025 20.0351 36.8955C20.7594 37.7941 19.5104 38.6151 18.7918 39.1198C18.0675 39.6301 16.4649 40.8782 15.3015 40.8782C14.2179 40.8782 12.5697 39.5913 11.526 38.7316C10.6763 38.0326 10.2828 37.1285 10.7618 36.5849C11.2409 36.0413 11.9823 36.241 12.6096 36.7791C13.3339 37.4059 14.7312 38.6539 15.3015 38.6539C15.8604 38.6594 16.6645 38.0715 17.5485 37.4835Z" fill="#DB0909"/>
</svg>
